<?xml version="1.0" encoding="UTF-8"?>
<svg xmlns="http://www.w3.org/2000/svg" viewBox="0 0 24 24" width="512" height="512"><path d="M14.053,15.228a1,1,0,0,1-.707-1.707l3.541-3.541a3.029,3.029,0,1,0-4.284-4.284l-2.062,2.061A1,1,0,0,1,9.127,6.343l2.062-2.062a5.029,5.029,0,0,1,7.112,7.112l-3.541,3.541A1,1,0,0,1,14.053,15.228Z"/><path d="M9.947,21.944a5.021,5.021,0,0,1-3.556-1.472,5.03,5.03,0,0,1,0-7.112l3.541-3.541a1,1,0,0,1,1.414,1.414l-3.541,3.541a3.029,3.029,0,1,0,4.284,4.284l2.062-2.061a1,1,0,1,1,1.414,1.414l-2.062,2.062A5.021,5.021,0,0,1,9.947,21.944Z"/></svg>
